<?xml version="1.0" encoding="UTF-8"?>
<svg version="1.1" xmlns="http://www.w3.org/2000/svg" width="1024" height="1024">
<path d="M0 0 C1.9941225 -0.00302785 3.98824384 -0.00692048 5.98236316 -0.01159257 C11.4118116 -0.02179997 16.84119346 -0.01970941 22.27064717 -0.01541197 C28.1461266 -0.01293141 34.02159056 -0.02197542 39.89706421 -0.02944946 C51.38928744 -0.04216239 62.88148728 -0.04399436 74.37371636 -0.0416492 C83.7223311 -0.0398618 93.0709399 -0.041588 102.41955376 -0.04587364 C103.76664259 -0.04647607 105.11373143 -0.04707727 106.46082027 -0.04767724 C108.49122423 -0.04858458 110.52162818 -0.04949326 112.55203214 -0.0504096 C131.41118409 -0.05882976 150.27033347 -0.06318139 169.12948704 -0.05900288 C170.19416546 -0.05876831 170.19416546 -0.05876831 171.28035254 -0.05852901 C174.87712846 -0.05772333 178.47390437 -0.05687756 182.07068027 -0.05601571 C182.78490102 -0.05584462 183.49912176 -0.05567353 184.23498556 -0.05549726 C185.67931153 -0.0551506 187.12363749 -0.05480207 188.56796345 -0.05445167 C211.02692749 -0.049098 233.48585224 -0.05701866 255.94480896 -0.07548523 C281.22889058 -0.0962508 306.51294787 -0.10691915 331.7970385 -0.10290974 C334.49869438 -0.10251445 337.20035026 -0.1021529 339.90200615 -0.10181236 C340.89968953 -0.10167627 340.89968953 -0.10167627 341.91752812 -0.10153742 C351.91210642 -0.10037658 361.90665937 -0.10701739 371.90123177 -0.11762428 C383.28384589 -0.12958272 394.66640221 -0.13089329 406.0490172 -0.11883412 C411.84656484 -0.1129762 417.644007 -0.11175964 423.44154739 -0.12383652 C468.87092094 -0.21205554 468.87092094 -0.21205554 488.62913513 3.26069641 C489.3552204 3.38750365 490.08130566 3.51431088 490.82939351 3.64496076 C494.73088265 4.34261389 498.58611783 5.15571862 502.44163513 6.07319641 C504.12458679 6.46329895 504.12458679 6.46329895 505.84153748 6.86128235 C524.82025031 11.34819321 542.68011862 17.63483331 560.62913513 25.26069641 C561.42448669 25.59826965 562.21983826 25.9358429 563.03929138 26.28364563 C593.89007396 39.59115001 621.52875047 60.04608392 645.62913513 83.26069641 C646.18230408 83.79195129 646.73547302 84.32320618 647.30540466 84.87055969 C654.63280729 91.94580049 661.32065409 99.2492468 667.62913513 107.26069641 C668.57070547 108.40333649 669.51486314 109.54384791 670.46116638 110.68257141 C711.75946618 160.69322535 734.03072793 226.05212373 733.88983154 290.63156128 C733.89285939 292.62568378 733.89675202 294.61980512 733.90142411 296.61392444 C733.91163151 302.04337288 733.90954096 307.47275474 733.90524352 312.90220845 C733.90276295 318.77768788 733.91180697 324.65315183 733.91928101 330.52862549 C733.93199393 342.02084872 733.9338259 353.51304856 733.93148074 365.00527764 C733.92969334 374.35389238 733.93141954 383.70250118 733.93570518 393.05111504 C733.93630761 394.39820387 733.93690881 395.74529271 733.93750879 397.09238155 C733.93841613 399.12278551 733.9393248 401.15318946 733.94024114 403.18359342 C733.9486613 422.04274537 733.95301293 440.90189475 733.94883442 459.76104832 C733.94867804 460.47083393 733.94852167 461.18061955 733.94836055 461.91191382 C733.94755487 465.50868974 733.9467091 469.10546564 733.94584725 472.70224155 C733.94567616 473.4164623 733.94550508 474.13068304 733.9453288 474.86654684 C733.94498214 476.31087281 733.94463361 477.75519877 733.94428322 479.19952473 C733.93892955 501.65848877 733.94685021 524.11741352 733.96531677 546.57637024 C733.98608234 571.86045186 733.99675069 597.14450915 733.99274129 622.42859977 C733.992346 625.13025566 733.99198444 627.83191154 733.99164391 630.53356743 C733.99150781 631.5312508 733.99150781 631.5312508 733.99136896 632.5490894 C733.99020813 642.5436677 733.99684893 652.53822065 734.00745583 662.53279305 C734.01941427 673.91540717 734.02072484 685.29796349 734.00866566 696.68057848 C734.00280774 702.47812612 734.00159118 708.27556828 734.01366806 714.07310867 C734.10188708 759.50248222 734.10188708 759.50248222 730.62913513 779.26069641 C730.5023279 779.98678167 730.37552066 780.71286694 730.24487078 781.46095479 C729.54721766 785.36244393 728.73411292 789.21767911 727.81663513 793.07319641 C727.55656677 794.19516418 727.29649841 795.31713196 727.02854919 796.47309875 C722.54163833 815.45181159 716.25499823 833.3116799 708.62913513 851.26069641 C708.29156189 852.05604797 707.95398865 852.85139954 707.60618591 853.67085266 C694.29868153 884.52163524 673.84374762 912.16031174 650.62913513 936.26069641 C650.09788025 936.81386536 649.56662537 937.3670343 649.01927185 937.93696594 C641.94403105 945.26436857 634.64058475 951.95221536 626.62913513 958.26069641 C625.48649505 959.20226675 624.34598364 960.14642441 623.20726013 961.09272766 C573.19660619 1002.39102745 507.83770781 1024.66228921 443.25827026 1024.52139282 C441.26414776 1024.52442067 439.27002642 1024.5283133 437.2759071 1024.53298539 C431.84645867 1024.54319279 426.4170768 1024.54110224 420.9876231 1024.5368048 C415.11214366 1024.53432423 409.23667971 1024.54336824 403.36120605 1024.55084229 C391.86898282 1024.56355521 380.37678299 1024.56538718 368.8845539 1024.56304202 C359.53593917 1024.56125462 350.18733036 1024.56298082 340.83871651 1024.56726646 C339.49162767 1024.56786889 338.14453883 1024.56847009 336.79744999 1024.56907007 C334.76704604 1024.56997741 332.73664208 1024.57088608 330.70623813 1024.57180242 C311.84708618 1024.58022258 292.98793679 1024.58457421 274.12878323 1024.5803957 C273.41899761 1024.58023932 272.70921199 1024.58008295 271.97791772 1024.57992183 C268.3811418 1024.57911615 264.7843659 1024.57827038 261.18759 1024.57740853 C260.11625887 1024.5771519 260.11625887 1024.5771519 259.0232847 1024.57689008 C257.57895874 1024.57654342 256.13463278 1024.57619489 254.69030682 1024.5758445 C232.23134277 1024.57049083 209.77241802 1024.57841149 187.3134613 1024.59687805 C162.02937968 1024.61764362 136.74532239 1024.62831197 111.46123177 1024.62430257 C108.75957589 1024.62390728 106.05792 1024.62354572 103.35626411 1024.62320518 C102.35858074 1024.62306909 102.35858074 1024.62306909 101.34074214 1024.62293024 C91.34616384 1024.62176941 81.3516109 1024.62841021 71.3570385 1024.63901711 C59.97442438 1024.65097554 48.59186805 1024.65228612 37.20925307 1024.64022694 C31.41170543 1024.63436902 25.61426327 1024.63315246 19.81672287 1024.64522934 C-25.61265067 1024.73344836 -25.61265067 1024.73344836 -45.37086487 1021.26069641 C-46.09695013 1021.13388918 -46.8230354 1021.00708194 -47.57112324 1020.87643206 C-51.47261239 1020.17877894 -55.32784757 1019.3656742 -59.18336487 1018.44819641 C-60.30533264 1018.18812805 -61.42730042 1017.92805969 -62.58326721 1017.66011047 C-81.56198005 1013.17319961 -99.42184836 1006.88655951 -117.37086487 999.26069641 C-118.16621643 998.92312317 -118.96156799 998.58554993 -119.78102112 998.23774719 C-150.6318037 984.93024281 -178.2704802 964.4753089 -202.37086487 941.26069641 C-202.92403381 940.72944153 -203.47720276 940.19818665 -204.0471344 939.65083313 C-211.37453703 932.57559233 -218.06238382 925.27214603 -224.37086487 917.26069641 C-225.31243521 916.11805633 -226.25659287 914.97754492 -227.20289612 913.83882141 C-268.50119591 863.82816747 -290.77245767 798.46926909 -290.63156128 733.88983154 C-290.63458913 731.89570904 -290.63848176 729.9015877 -290.64315385 727.90746838 C-290.65336125 722.47801995 -290.65127069 717.04863808 -290.64697325 711.61918437 C-290.64449269 705.74370494 -290.6535367 699.86824099 -290.66101074 693.99276733 C-290.67372367 682.5005441 -290.67555563 671.00834427 -290.67321048 659.51611518 C-290.67142308 650.16750045 -290.67314928 640.81889164 -290.67743492 631.47027779 C-290.67803735 630.12318895 -290.67863854 628.77610011 -290.67923852 627.42901127 C-290.68014586 625.39860732 -290.68105454 623.36820336 -290.68197088 621.3377994 C-290.69039104 602.47864746 -290.69474267 583.61949807 -290.69056416 564.76034451 C-290.69040778 564.05055889 -290.6902514 563.34077327 -290.69009029 562.609479 C-290.68928461 559.01270308 -290.68843884 555.41592718 -290.68757699 551.81915127 C-290.6874059 551.10493053 -290.68723481 550.39070978 -290.68705854 549.65484598 C-290.68671188 548.21052002 -290.68636335 546.76619406 -290.68601295 545.3218681 C-290.68065928 522.86290405 -290.68857994 500.4039793 -290.70704651 477.94502258 C-290.72781208 452.66094096 -290.73848043 427.37688367 -290.73447102 402.09279305 C-290.73407573 399.39113717 -290.73371418 396.68948128 -290.73337364 393.98782539 C-290.73328291 393.32270314 -290.73319218 392.65758089 -290.7330987 391.97230342 C-290.73193786 381.97772512 -290.73857867 371.98317217 -290.74918556 361.98859978 C-290.761144 350.60598565 -290.76245457 339.22342933 -290.75039539 327.84081434 C-290.74453748 322.04326671 -290.74332092 316.24582454 -290.7553978 310.44828415 C-290.84361682 265.01891061 -290.84361682 265.01891061 -287.37086487 245.26069641 C-287.24405763 244.53461115 -287.1172504 243.80852588 -286.98660052 243.06043804 C-286.28894739 239.15894889 -285.47584266 235.30371371 -284.55836487 231.44819641 C-284.29829651 230.32622864 -284.03822815 229.20426086 -283.77027893 228.04829407 C-279.28336807 209.06958123 -272.99672797 191.20971292 -265.37086487 173.26069641 C-265.03329163 172.46534485 -264.69571838 171.66999329 -264.34791565 170.85054016 C-251.04041127 139.99975758 -230.58547736 112.36108108 -207.37086487 88.26069641 C-206.57398254 87.43094299 -206.57398254 87.43094299 -205.76100159 86.58442688 C-198.68576079 79.25702425 -191.38231448 72.56917746 -183.37086487 66.26069641 C-182.22822479 65.31912607 -181.08771337 64.37496841 -179.94898987 63.42866516 C-129.93833593 22.13036537 -64.57943755 -0.14089639 0 0 Z " fill="#FEFEFE" transform="translate(290.37086486816406,-0.2606964111328125)"/>
<path d="M0 0 C0.40613525 0.7120459 0.81227051 1.4240918 1.23071289 2.15771484 C13.43777755 23.55386771 25.68387957 44.92628545 38.125 66.1875 C43.29883813 75.02983505 48.36784024 83.92667175 53.39160156 92.85498047 C56.88053689 99.04629737 60.43549481 105.19236836 64.05615234 111.30737305 C72.54287007 125.65767196 80.80734795 140.14059391 89.0625 154.625 C93.84764826 163.01927871 98.70413129 171.37039539 103.58056641 179.71191406 C109.7998955 190.35565245 115.95567917 201.03571631 122.10888672 211.71777344 C125.23680147 217.14659939 128.36854843 222.57321364 131.5 228 C135.04120203 234.13711687 138.5821511 240.27437761 142.12011719 246.4133606 C143.49806938 248.80426597 144.87634172 251.19498672 146.25463867 253.58569336 C147.22540982 255.26983963 148.19571874 256.95425231 149.16601562 258.63867188 C149.75576172 259.66154297 150.34550781 260.68441406 150.953125 261.73828125 C151.47036133 262.63587158 151.98759766 263.53346191 152.52050781 264.45825195 C153.00874023 265.29702881 153.49697266 266.13580566 154 267 C154.31211929 267.86382294 154.62423859 268.72764587 154.94581604 269.61764526 C156.71414722 272.14217937 156.71414722 272.14217937 159.01232338 272.46725368 C161.80077042 272.66012097 164.55126758 272.68333205 167.34643555 272.65942383 C168.41001282 272.66990753 169.47359009 272.68039124 170.56939697 272.69119263 C174.09213076 272.72004136 177.61388754 272.71363923 181.13671875 272.70703125 C183.57625059 272.72014025 186.01577156 272.73544199 188.45527649 272.75285339 C194.88165986 272.7928091 201.30775998 272.8029007 207.73425293 272.80688477 C214.28972016 272.81619622 220.84501957 272.85359729 227.40039062 272.88867188 C240.26691209 272.95335549 253.13332751 272.98746073 266 273 C265.34210551 277.42116146 264.43112791 280.49936294 262.1484375 284.359375 C261.25415039 285.88884766 261.25415039 285.88884766 260.34179688 287.44921875 C259.69275391 288.53847656 259.04371094 289.62773438 258.375 290.75 C257.69497822 291.90697352 257.01595953 293.06453713 256.33789062 294.22265625 C254.92932676 296.62665148 253.51649359 299.02805773 252.10058594 301.42773438 C248.85983022 306.9283488 245.68333677 312.46603409 242.5 318 C241.25030108 320.16684034 240.00030011 322.3335065 238.75 324.5 C238.13125 325.5725 237.5125 326.645 236.875 327.75 C225 348.33333333 213.125 368.91666667 201.25 389.5 C200.63116943 390.57266113 200.01233887 391.64532227 199.37475586 392.75048828 C198.12564482 394.91557071 196.87645871 397.08060982 195.62719727 399.24560547 C192.48797691 404.68615706 189.35009437 410.12747216 186.21484375 415.5703125 C185.58191406 416.66859375 184.94898438 417.766875 184.296875 418.8984375 C183.13099679 420.9215791 181.96556279 422.94497682 180.80078125 424.96875 C174.24650267 436.3396612 167.61343672 447.66267991 161 459 C197.63 459 234.26 459 272 459 C272.66 457.02 273.32 455.04 274 453 C275.24577568 450.76263157 276.51730489 448.60342513 277.875 446.4375 C281.59308722 440.37435715 285.17642574 434.24776709 288.6875 428.0625 C293.07528016 420.34540162 297.51677894 412.66204208 302 405 C306.37388937 397.52263813 310.71444714 390.02834511 315 382.5 C319.20255842 375.11759879 323.4589679 367.76881494 327.75 360.4375 C332.88863307 351.65614705 337.96313551 342.83994546 343 334 C348.59699871 324.17699139 354.25005566 314.38881367 359.96582031 304.63427734 C364.4714634 296.93616097 368.8995899 289.19559947 373.27050781 281.42016602 C373.73295898 280.60346436 374.19541016 279.7867627 374.671875 278.9453125 C375.0750293 278.22875488 375.47818359 277.51219727 375.89355469 276.77392578 C377 275 377 275 379 273 C380.83906746 272.75390434 380.83906746 272.75390434 383.11282349 272.75949097 C383.97381653 272.75674164 384.83480957 272.75399231 385.72189331 272.75115967 C386.66847809 272.75835022 387.61506287 272.76554077 388.59033203 272.77294922 C389.58548828 272.77265717 390.58064453 272.77236511 391.60595703 272.77206421 C394.90666316 272.7734614 398.20714563 272.78904096 401.5078125 272.8046875 C403.791818 272.80841624 406.0758251 272.81126387 408.35983276 272.81326294 C414.3801513 272.8209103 420.40037379 272.84056826 426.4206543 272.8626709 C432.5603709 272.8831056 438.70010297 272.89225957 444.83984375 272.90234375 C456.89327143 272.92381311 468.94662774 272.95796233 481 273 C481.00803683 274.4465241 481.01378339 275.89306105 481.01855469 277.33959961 C481.02372101 278.54790688 481.02372101 278.54790688 481.0289917 279.78062439 C480.93602864 286.8971421 478.4167246 292.88063595 475 299 C474.60119629 299.7329126 474.20239258 300.4658252 473.79150391 301.22094727 C470.27952683 307.62260373 466.58099286 313.91321524 462.84765625 320.1875 C459.45008926 325.90716261 456.13264483 331.67266081 452.8125 337.4375 C451.85609619 339.09736938 451.85609619 339.09736938 450.88037109 340.79077148 C449.57189492 343.0620547 448.26362839 345.3334587 446.95556641 347.60498047 C443.80667946 353.0716998 440.65316736 358.53574887 437.5 364 C436.2499765 366.16665311 434.99997653 368.33331979 433.75 370.5 C421.25 392.16666667 408.75 413.83333333 396.25 435.5 C395.63116943 436.57266113 395.01233887 437.64532227 394.37475586 438.75048828 C393.12564482 440.91557071 391.87645871 443.08060982 390.62719727 445.24560547 C387.48797691 450.68615706 384.35009437 456.12747216 381.21484375 461.5703125 C374.60398686 473.04370049 367.98196345 484.51001005 361.28027344 495.93066406 C358.51287649 500.65445907 355.7698315 505.38868346 353.09420776 510.16522217 C352.10750568 511.92605248 351.11588061 513.68402712 350.12304688 515.44140625 C348.8756198 517.65429909 347.6378655 519.87268638 346.41210938 522.09765625 C338.72852313 535.67514684 327.41866951 547.88014892 312.06813091 552.59312981 C305.68703617 554.12592079 299.55553218 554.28334952 293.01344299 554.26069641 C291.8326622 554.26452196 290.6518814 554.26834751 289.43531936 554.27228898 C286.17985764 554.28078525 282.92454124 554.28039949 279.66907585 554.27610838 C276.14957056 554.27363245 272.63009133 554.28266601 269.1105957 554.29014587 C262.22430675 554.30287042 255.33805683 554.30468941 248.45175809 554.30234561 C242.85279767 554.30055994 237.25384907 554.30231742 231.65489006 554.30657005 C230.45793092 554.30746284 230.45793092 554.30746284 229.23679079 554.30837366 C227.6155289 554.30958545 225.99426702 554.31079958 224.37300514 554.31201603 C209.18218253 554.32288272 193.99138213 554.32073308 178.80055826 554.31463119 C164.91452599 554.30946162 151.02856387 554.32072006 137.14254547 554.33972941 C122.870149 554.35911732 108.5977857 554.36736221 94.32537597 554.36360615 C86.31817213 554.36169571 78.31102799 554.36416649 70.30383492 554.37832069 C63.48796668 554.39024754 56.67219493 554.39162471 49.85632534 554.37953053 C46.381629 554.37365125 42.90710902 554.37251591 39.43242455 554.38453293 C35.65930027 554.39499283 31.88664805 554.386905 28.11354065 554.3742218 C27.02432408 554.38159609 25.93510752 554.38897037 24.81288439 554.39656812 C9.79771281 554.29059264 -1.88594949 548.34099232 -12.80859375 538.24609375 C-16.54524037 534.41619749 -19.49642671 530.38069394 -22.14453125 525.73828125 C-22.73105469 524.71541016 -23.31757813 523.69253906 -23.921875 522.63867188 C-24.54578125 521.54103516 -25.1696875 520.44339844 -25.8125 519.3125 C-26.47741412 518.15013283 -27.14278737 516.98802819 -27.80859375 515.82617188 C-29.1900913 513.4145854 -30.56961565 511.00188656 -31.94775391 508.58837891 C-35.11338555 503.04829045 -38.30823887 497.52506019 -41.5 492 C-42.75013641 489.83341204 -44.000136 487.66674512 -45.25 485.5 C-45.86875 484.4275 -46.4875 483.355 -47.125 482.25 C-74 435.66666667 -100.875 389.08333333 -127.75 342.5 C-128.36963623 341.42621094 -128.98927246 340.35242188 -129.62768555 339.24609375 C-130.86959917 337.09294686 -132.11065637 334.93930576 -133.35083008 332.78515625 C-136.24951727 327.75258083 -139.15596937 322.72508192 -142.09432983 317.71557617 C-143.12883312 315.95095107 -144.16052799 314.18471361 -145.19140625 312.41796875 C-146.48144499 310.20899831 -147.77666641 308.00304279 -149.078125 305.80078125 C-155.31997007 295.08675708 -159.17416228 285.89505964 -159.3125 273.5 C-159.34150391 272.6646875 -159.37050781 271.829375 -159.40039062 270.96875 C-159.51417464 259.48531708 -154.84196292 249.95326883 -149.125 240.25 C-148.27397705 238.77527222 -148.27397705 238.77527222 -147.40576172 237.27075195 C-145.61489135 234.17392608 -143.80862709 231.08648268 -142 228 C-140.8535673 226.03029664 -139.70772627 224.06024879 -138.5625 222.08984375 C-136.24647467 218.10999004 -133.92399699 214.13398812 -131.59765625 210.16015625 C-125.98321325 200.56057762 -120.4419968 190.91864049 -114.89111328 181.28222656 C-111.7631985 175.85340055 -108.63138034 170.42682751 -105.5 165 C-104.25390161 162.83984643 -103.00780786 160.67969017 -101.76171875 158.51953125 C-99.22384007 154.12040925 -96.68463417 149.72205679 -94.14453125 145.32421875 C-87.89793524 134.50672987 -81.66943929 123.6797603 -75.48535156 112.82641602 C-71.72152314 106.23343065 -67.89815038 99.67640668 -64.0625 93.125 C-59.38916726 85.1421676 -54.78572932 77.12430435 -50.25 69.0625 C-46.2218169 61.90335001 -42.15618076 54.77328073 -37.95043945 47.71679688 C-35.35724254 43.35345895 -32.84262294 38.95261484 -30.36328125 34.5234375 C-29.39140869 32.80120972 -29.39140869 32.80120972 -28.39990234 31.04418945 C-27.12826403 28.78805186 -25.86623502 26.52646019 -24.61572266 24.25854492 C-10.88251046 0 -10.88251046 0 0 0 Z " fill="#3F00A5" transform="translate(351,232)"/>
<path d="M0 0 C1.74477647 -0.00679667 1.74477647 -0.00679667 3.52480096 -0.01373065 C6.72660171 -0.02414164 9.92825987 -0.02571071 13.130072 -0.02334189 C16.59372435 -0.02293149 20.05734398 -0.03399402 23.52098083 -0.04345703 C30.29650735 -0.06001889 37.07199904 -0.06556437 43.84754411 -0.06668179 C49.35825939 -0.06763443 54.86896325 -0.07175546 60.37967491 -0.07808304 C76.0259412 -0.09568128 91.67218013 -0.10492398 107.31845639 -0.10342209 C108.16068069 -0.10334218 109.00290499 -0.10326227 109.87065125 -0.10317993 C110.7139114 -0.10309817 111.55717156 -0.10301641 112.42598506 -0.10293217 C126.09008453 -0.10211938 139.75407375 -0.12125908 153.41814134 -0.14945666 C167.47023275 -0.17822474 181.52227044 -0.19199485 195.57439202 -0.19026911 C203.45482717 -0.18960663 211.33514667 -0.19503674 219.21555519 -0.21662521 C225.9248334 -0.23488863 232.63394351 -0.23914211 239.34323589 -0.22560637 C242.7616584 -0.21910295 246.17975892 -0.21886333 249.59815025 -0.23631287 C253.31555494 -0.25181781 257.03212419 -0.24242126 260.74951172 -0.22705078 C261.81374385 -0.23733791 262.87797598 -0.24762503 263.97445756 -0.25822389 C279.40377948 -0.11806114 293.62346368 6.10515481 304.75273132 16.71273804 C308.43805884 20.7840289 311.11290848 25.24346413 313.79667664 30.01937866 C315.29948462 32.6825534 316.83394552 35.32636517 318.36991882 37.97055054 C321.28353616 42.99289504 324.18203159 48.02371123 327.07315063 53.05903625 C330.56144987 59.13373418 334.06311926 65.20068421 337.56523132 71.26742554 C338.81529244 73.43405694 340.06529232 75.60072368 341.31523132 77.76742554 C341.93398132 78.83992554 342.55273132 79.91242554 343.19023132 81.01742554 C346.00273132 85.89242554 346.00273132 85.89242554 348.81523132 90.76742554 C349.43422302 91.84032837 350.05321472 92.9132312 350.69096375 94.01864624 C351.93857872 96.18121137 353.18613749 98.34380893 354.43363953 100.50643921 C357.59466581 105.98612925 360.75672442 111.46521911 363.92070007 116.94320679 C369.67831354 126.91390437 375.42745025 136.88882295 381.12773132 146.89242554 C385.91280029 155.28674867 390.76936324 163.637822 395.64579773 171.9793396 C401.86082077 182.61570863 408.01213042 193.28848372 414.16093445 203.96322632 C416.08029794 207.29356806 418.00205486 210.62251701 419.92460632 213.95101929 C423.04895557 219.36021009 426.17009467 224.77123829 429.28837585 230.18392944 C430.46044922 232.21790672 431.63328419 234.25144534 432.80693054 236.28451538 C434.43758009 239.11050398 436.06441989 241.93865145 437.69023132 244.76742554 C438.16291443 245.58509399 438.63559753 246.40276245 439.12260437 247.24520874 C450.21351896 266.58694948 450.21351896 266.58694948 450.10820007 277.01351929 C450.10199646 277.813302 450.09579285 278.61308472 450.08940125 279.43710327 C450.08142517 280.04110962 450.0734491 280.64511597 450.06523132 281.26742554 C448.17841393 281.23625389 448.17841393 281.23625389 446.253479 281.20445251 C434.38031442 281.01814189 422.50871382 280.9112324 410.63409519 280.88139439 C404.52924234 280.86351991 398.42724084 280.81800497 392.32328796 280.70858765 C386.4284675 280.60394812 380.53736333 280.57287601 374.64169121 280.59208488 C372.39650233 280.58661089 370.15121505 280.55494003 367.90678596 280.49627876 C356.47920502 279.7236348 356.47920502 279.7236348 346.25671577 283.73638725 C343.27276221 287.27355814 341.41395272 291.16575206 339.77860641 295.46715546 C338.79009509 297.96175807 337.44904032 300.19626076 336.05351257 302.48226929 C335.1602002 304.05570235 334.26828476 305.62992929 333.37773132 307.20492554 C328.99119398 314.9227214 324.5484427 322.6054 320.06523132 330.26742554 C315.69134195 337.74478741 311.35078418 345.23908043 307.06523132 352.76742554 C302.8626729 360.14982675 298.60626343 367.4986106 294.31523132 374.82992554 C289.17659825 383.61127849 284.10209582 392.42748008 279.06523132 401.26742554 C273.46629048 411.0938427 267.80769956 420.88327849 262.09501648 430.64413452 C256.79873198 439.70155965 251.5861911 448.80577098 246.39872742 457.9258728 C244.62430597 461.04166849 242.8442028 464.15422546 241.06523132 467.26742554 C204.43523132 467.26742554 167.80523132 467.26742554 130.06523132 467.26742554 C131.61062889 463.40393163 133.17729683 460.14321855 135.23320007 456.56820679 C135.87136658 455.45494019 136.50953308 454.34167358 137.16703796 453.19467163 C137.86218666 451.98970871 138.55742003 450.78479464 139.25273132 449.57992554 C139.9749175 448.32307755 140.69683722 447.06607642 141.41850281 445.80892944 C143.272662 442.58105406 145.13087085 439.35553205 146.99064636 436.13088989 C148.63915316 433.27217349 150.2855482 430.41224099 151.93241882 427.55258179 C155.02002309 422.19464445 158.11244065 416.83950053 161.2063446 411.48519897 C164.32847737 406.08071908 167.44664337 400.67395142 170.56523132 395.26742554 C171.81521254 393.10074803 173.06521253 390.93408136 174.31523132 388.76742554 C175.24335632 387.15867554 175.24335632 387.15867554 176.19023132 385.51742554 C183.06523132 373.60075887 189.94023132 361.6840922 196.81523132 349.76742554 C197.43430359 348.69436157 198.05337585 347.62129761 198.69120789 346.51571655 C199.93793388 344.35473566 201.18467859 342.19376556 202.43144226 340.0328064 C205.60669016 334.52923702 208.78158627 329.02546521 211.95585632 323.52133179 C212.59635925 322.41096558 213.23686218 321.30059937 213.89677429 320.15658569 C215.16202815 317.96259879 216.42668996 315.76827033 217.6907196 313.57357788 C220.58206785 308.55621565 223.48330398 303.54544077 226.41679382 298.55258179 C227.18684753 297.23761719 227.18684753 297.23761719 227.97245789 295.89608765 C228.92073969 294.27855107 229.87294462 292.66330516 230.82987976 291.0508728 C231.24528015 290.34116333 231.66068054 289.63145386 232.08866882 288.90023804 C232.44880066 288.29067261 232.8089325 287.68110718 233.17997742 287.05307007 C234.1257354 285.14538284 234.5786446 283.33382453 235.06523132 281.26742554 C234.51084885 281.27940885 233.95646637 281.29139215 233.38528442 281.30373859 C219.87222051 281.59131047 206.359695 281.8053493 192.84422302 281.94098377 C186.30784475 282.00878775 179.77367699 282.1007162 173.23857117 282.24813843 C166.92952339 282.38956772 160.62259875 282.46715326 154.31208801 282.5008297 C151.90686099 282.52482122 149.50174828 282.5716769 147.09742737 282.64191628 C128.75636724 283.15633666 128.75636724 283.15633666 124.30772591 280.03383064 C121.11700479 276.59203231 119.6630147 272.65121905 118.06523132 268.26742554 C116.85021656 266.0866525 115.60295238 263.92324582 114.31132507 261.78695679 C113.03977287 259.55242851 111.7703075 257.31671168 110.50273132 255.07992554 C109.09757655 252.60924957 107.6907186 250.13954448 106.28398132 247.66976929 C105.93105515 247.0496698 105.57812897 246.42957031 105.21450806 245.79067993 C101.66739081 239.56104478 98.08845007 233.34991437 94.50273132 227.14242554 C93.89131287 226.08378296 93.27989441 225.02514038 92.64994812 223.93441772 C91.4140146 221.79484512 90.17793067 219.6553594 88.94169617 217.51596069 C86.37203196 213.06735908 83.80573688 208.6168174 81.23930359 204.16635132 C76.35465221 195.69615138 71.46675869 187.22787206 66.56523132 178.76742554 C59.06062262 165.81384273 51.58700678 152.84236052 44.10820007 139.87387085 C34.84728028 123.81454377 34.84728028 123.81454377 25.56523132 107.76742554 C19.36388759 97.06338716 13.18483587 86.34650209 7.00468445 75.63021851 C5.10325501 72.33335431 3.20150595 69.03667476 1.29960632 65.74008179 C0.68238708 64.67024048 0.06516785 63.60039917 -0.570755 62.49813843 C-1.81008146 60.3501349 -3.04950152 58.20218538 -4.28901672 56.05429077 C-7.18725504 51.03171716 -10.08447484 46.00856608 -12.9775238 40.98300171 C-13.99424066 39.21697032 -15.01132526 37.45115122 -16.02851868 35.68539429 C-17.29877741 33.48008399 -18.56835886 31.27438337 -19.83711243 29.06820679 C-23.10115161 23.40328545 -26.41905759 17.7841902 -29.86616516 12.22836304 C-30.93476868 10.26742554 -30.93476868 10.26742554 -30.93476868 8.26742554 C-31.59476868 7.93742554 -32.25476868 7.60742554 -32.93476868 7.26742554 C-31.31678757 6.46151099 -29.68984054 5.67359571 -28.05976868 4.89242554 C-27.1548468 4.45156616 -26.24992493 4.01070679 -25.31758118 3.55648804 C-17.02890519 0.39798564 -8.79141634 -0.02542552 0 0 Z " fill="#B973F7" transform="translate(381.9347686767578,223.73257446289063)"/>
<path d="M0 0 C1.20432253 0.00138269 1.20432253 0.00138269 2.43297482 0.00279331 C3.810751 0.00073132 3.810751 0.00073132 5.21636105 -0.00137234 C6.73981388 0.00402058 6.73981388 0.00402058 8.29404354 0.00952244 C9.35732876 0.00937641 10.42061398 0.00923038 11.51611996 0.00907993 C15.04945535 0.00977958 18.58273878 0.0175744 22.11606503 0.02539158 C24.55844246 0.02725557 27.00082026 0.02867956 29.4431982 0.0296793 C35.88600342 0.03350594 42.32878626 0.04333746 48.7715826 0.05438328 C55.34018304 0.06459427 61.90878707 0.06917625 68.47739315 0.0742197 C81.37649127 0.0849596 94.27557383 0.10184679 107.17465878 0.12304783 C106.51676428 4.54420929 105.60578669 7.62241077 103.32309628 11.48242283 C102.72690487 12.50207127 102.13071346 13.5217197 101.51645565 14.57226658 C100.86741268 15.66152439 100.21836971 16.7507822 99.54965878 17.87304783 C98.86963699 19.03002134 98.19061831 20.18758496 97.5125494 21.34570408 C96.10398553 23.74969931 94.69115237 26.15110556 93.27524471 28.5507822 C90.034489 34.05139663 86.85799555 39.58908192 83.67465878 45.12304783 C82.42495986 47.28988817 81.17495888 49.45655433 79.92465878 51.62304783 C79.30590878 52.69554783 78.68715878 53.76804783 78.04965878 54.87304783 C60.23715878 85.74804783 60.23715878 85.74804783 42.42465878 116.62304783 C41.80582821 117.69570896 41.18699764 118.76837009 40.54941463 119.87353611 C39.30030359 122.03861854 38.05111748 124.20365765 36.80185604 126.3686533 C33.66263568 131.80920489 30.52475315 137.25051999 27.38950253 142.69336033 C26.75657284 143.79164158 26.12364315 144.88992283 25.47153378 146.02148533 C24.30565557 148.04462693 23.14022157 150.06802465 21.97544003 152.09179783 C15.42116145 163.46270903 8.78809549 174.78572774 2.17465878 186.12304783 C38.80465878 186.12304783 75.43465878 186.12304783 113.17465878 186.12304783 C113.83465878 184.14304783 114.49465878 182.16304783 115.17465878 180.12304783 C116.42043446 177.8856794 117.69196366 175.72647296 119.04965878 173.56054783 C122.767746 167.49740498 126.35108451 161.37081492 129.86215878 155.18554783 C134.24993893 147.46844944 138.69143772 139.78508991 143.17465878 132.12304783 C147.54854814 124.64568595 151.88910592 117.15139294 156.17465878 109.62304783 C160.37721719 102.24064662 164.63362667 94.89186277 168.92465878 87.56054783 C174.06329184 78.77919487 179.13779428 69.96299329 184.17465878 61.12304783 C189.77165748 51.30003922 195.42471443 41.5118615 201.14047909 31.75732517 C205.64612218 24.0592088 210.07424868 16.3186473 214.44516659 8.54321384 C214.90761776 7.72651218 215.37006893 6.90981052 215.84653378 6.06836033 C216.24968807 5.35180271 216.65284237 4.63524509 217.06821346 3.89697361 C218.17465878 2.12304783 218.17465878 2.12304783 220.17465878 0.12304783 C222.01372623 -0.12304783 222.01372623 -0.12304783 224.28748226 -0.1174612 C225.1484753 -0.12021053 226.00946835 -0.12295986 226.89655209 -0.1257925 C227.84313686 -0.11860195 228.78972164 -0.1114114 229.76499081 -0.10400295 C230.76014706 -0.10429501 231.75530331 -0.10458706 232.78061581 -0.10488796 C236.08132194 -0.10349077 239.38180441 -0.08791122 242.68247128 -0.07226467 C244.96647677 -0.06853593 247.25048387 -0.0656883 249.53449154 -0.06368923 C255.55481007 -0.05604187 261.57503256 -0.03638391 267.59531307 -0.01428127 C273.73502967 0.00615343 279.87476174 0.01530739 286.01450253 0.02539158 C298.06793021 0.04686093 310.12128652 0.08101016 322.17465878 0.12304783 C322.18269561 1.56957193 322.18844216 3.01610888 322.19321346 4.46264744 C322.19665768 5.26818562 322.20010189 6.07372379 322.20365047 6.90367222 C322.11068742 14.02018992 319.59138337 20.00368378 316.17465878 26.12304783 C315.77585506 26.85596043 315.37705135 27.58887302 314.96616268 28.34399509 C311.4541856 34.74565156 307.75565163 41.03626307 304.02231503 47.31054783 C300.62474804 53.03021044 297.30730361 58.79570863 293.98715878 64.56054783 C293.34955624 65.66712742 292.7119537 66.77370701 292.05502987 67.91381931 C290.7465537 70.18510252 289.43828717 72.45650653 288.13022518 74.7280283 C284.98133824 80.19474763 281.82782614 85.6587967 278.67465878 91.12304783 C277.42463528 93.28970094 276.17463531 95.45636762 274.92465878 97.62304783 C256.17465878 130.12304783 256.17465878 130.12304783 237.42465878 162.62304783 C236.80582821 163.69570896 236.18699764 164.76837009 235.54941463 165.87353611 C234.30030359 168.03861854 233.05111748 170.20365765 231.80185604 172.3686533 C228.66263568 177.80920489 225.52475315 183.25051999 222.38950253 188.69336033 C215.77864563 200.16674832 209.15662222 211.63305788 202.45493221 223.05371189 C199.68753527 227.7775069 196.94449028 232.51173129 194.26886654 237.28827 C193.28216445 239.04910031 192.29053939 240.80707495 191.29770565 242.56445408 C190.05027857 244.77734692 188.81252428 246.99573421 187.58676815 249.22070408 C179.90318191 262.79819466 168.59332829 275.00319675 153.24278969 279.71617764 C146.86169495 281.24896862 140.73019095 281.40639735 134.18810177 281.38374424 C132.41693057 281.38948256 132.41693057 281.38948256 130.60997814 281.39533681 C127.35451642 281.40383308 124.09920002 281.40344731 120.84373462 281.39915621 C117.32422933 281.39668028 113.8047501 281.40571383 110.28525448 281.4131937 C103.39896552 281.42591825 96.5127156 281.42773724 89.62641687 281.42539344 C84.02745645 281.42360777 78.42850784 281.42536525 72.82954884 281.42961788 C72.03157608 281.43021307 71.23360332 281.43080826 70.41144956 281.43142148 C68.79018768 281.43263328 67.1689258 281.43384741 65.54766392 281.43506386 C50.3568413 281.44593055 35.1660409 281.44378091 19.97521704 281.43767902 C6.08918477 281.43250945 -7.79677736 281.44376789 -21.68279576 281.46277723 C-35.95519223 281.48216515 -50.22755553 281.49041004 -64.49996525 281.48665398 C-72.50716909 281.48474354 -80.51431323 281.48721432 -88.52150631 281.50136852 C-95.33737454 281.51329537 -102.1531463 281.51467254 -108.96901589 281.50257836 C-112.44371222 281.49669907 -115.9182322 281.49556374 -119.39291668 281.50758076 C-123.16604095 281.51804066 -126.93869318 281.50995283 -130.71180058 281.49726963 C-131.80101714 281.50464392 -132.89023371 281.5120182 -134.01245683 281.51961595 C-143.12275706 281.45531642 -150.8185825 279.54783554 -158.82534122 275.12304783 C-158.24245771 270.20198206 -156.05626263 266.53397865 -153.63784122 262.31054783 C-153.19786808 261.53066502 -152.75789494 260.7507822 -152.30458927 259.94726658 C-147.46268962 251.40322859 -142.49161352 242.9329273 -137.52846622 234.45898533 C-133.78899533 228.07022791 -130.08409088 221.66188707 -126.38784122 215.24804783 C-125.76562687 214.16845798 -125.14341251 213.08886814 -124.50234318 211.97656345 C-123.24022606 209.78622263 -121.97826338 207.59579281 -120.71645451 205.40527439 C-117.58853973 199.97644838 -114.45672157 194.54987534 -111.32534122 189.12304783 C-110.07924283 186.96289426 -108.83314909 184.802738 -107.58705997 182.64257908 C-105.04918129 178.24345708 -102.5099754 173.84510462 -99.96987247 169.44726658 C-94.212259 159.476569 -88.4631223 149.50165042 -82.76284122 139.49804783 C-77.97777226 131.1037247 -73.12120931 122.75265136 -68.24477482 114.41113377 C-63.93581507 107.03679489 -59.65360836 99.64745117 -55.38784122 92.24804783 C-54.76981632 91.17619236 -54.15179142 90.10433689 -53.51503849 89.00000095 C-50.29381597 83.41125304 -47.07610367 77.8204976 -43.86049747 72.22851658 C-31.91676264 51.47283456 -31.91676264 51.47283456 -25.85268497 41.56445408 C-24.1976633 38.75506277 -22.62015133 35.93051359 -21.06752872 33.06445408 C-17.81564338 27.06596456 -14.43300252 21.14718019 -11.01894474 15.23974705 C-9.99456457 13.46640851 -8.97334595 11.69127331 -7.95229435 9.91601658 C-7.30582951 8.79582127 -6.65936466 7.67562595 -5.99330997 6.52148533 C-5.11582096 5.00047215 -5.11582096 5.00047215 -4.2206049 3.44873142 C-2.24226558 0.15115306 -2.24226558 0.15115306 0 0 Z " fill="#8800FE" transform="translate(509.8253412246704,504.8769521713257)"/>
<path d="M0 0 C14.2987125 -0.39809745 28.59656021 -0.69622486 42.89968681 -0.88080692 C49.54272301 -0.96942551 56.18039625 -1.08948749 62.82128906 -1.2824707 C69.23423745 -1.46765637 75.64360866 -1.56891644 82.05902481 -1.61291313 C84.5019071 -1.64424745 86.94460017 -1.70544919 89.385952 -1.79741096 C108.02428843 -2.47134668 108.02428843 -2.47134668 112.98198128 1.64604759 C116.29243102 5.66089951 118.33960946 10.07393506 120.16836357 14.91375351 C121.38523389 17.96639929 123.01770455 20.63179315 124.73046875 23.43359375 C125.88355831 25.43446621 127.03589289 27.43577394 128.1875 29.4375 C129.4830528 31.68620951 130.77862632 33.93490708 132.07421875 36.18359375 C133.0494751 37.87718018 133.0494751 37.87718018 134.04443359 39.60498047 C137.19332054 45.0716998 140.34683264 50.53574887 143.5 56 C144.7500235 58.16665311 146.00002347 60.33331979 147.25 62.5 C147.86875 63.5725 148.4875 64.645 149.125 65.75 C154.75 75.5 154.75 75.5 156.62524414 78.75048828 C157.87435518 80.91557071 159.12354129 83.08060982 160.37280273 85.24560547 C163.51202309 90.68615706 166.64990563 96.12747216 169.78515625 101.5703125 C176.36955163 112.99755066 182.98330829 124.40641747 189.64282227 135.79003906 C194.9921852 144.95173932 200.25390965 154.16276804 205.49584961 163.38623047 C206.12628174 164.49369629 206.75671387 165.60116211 207.40625 166.7421875 C208.30730469 168.33498535 208.30730469 168.33498535 209.2265625 169.95996094 C210.38385394 171.94379808 211.58567685 173.90250311 212.8359375 175.82910156 C216.94167489 182.16508686 216.94167489 182.16508686 217.2109375 186.01953125 C215.39798882 190.48172429 213.08199948 194.55101331 210.625 198.6875 C210.08335205 199.61667236 209.5417041 200.54584473 208.98364258 201.50317383 C207.86505542 203.42096143 206.74272417 205.33657001 205.61669922 207.25 C203.72350669 210.4703142 201.85316169 213.70336281 199.98583984 216.9387207 C198.65369958 219.24604374 197.31744725 221.55094625 195.98046875 223.85546875 C192.47724143 229.89802826 188.98907639 235.94926229 185.5 242 C169.88254296 269.0763849 169.88254296 269.0763849 163.7734375 279.51953125 C157.39786927 290.41954943 151.06865934 301.34362037 144.8125 312.3125 C144.4720163 312.90944672 144.13153259 313.50639343 143.7807312 314.12142944 C143.44244293 314.71452911 143.10415466 315.30762878 142.75561523 315.91870117 C135.98331134 327.79134569 129.14083649 339.62158424 122.25 351.42578125 C121.60756348 352.52631836 120.96512695 353.62685547 120.30322266 354.76074219 C119.03801771 356.9271934 117.77209132 359.09322348 116.50537109 361.25878906 C115.93383301 362.23686523 115.36229492 363.21494141 114.7734375 364.22265625 C114.26216309 365.09672119 113.75088867 365.97078613 113.22412109 366.87133789 C112.44484002 368.2264539 111.69908775 369.60182451 111 371 C74.37 371 37.74 371 0 371 C1.54539756 367.13650609 3.11206551 363.87579302 5.16796875 360.30078125 C6.12521851 358.63088135 6.12521851 358.63088135 7.10180664 356.92724609 C7.79695534 355.72228318 8.4921887 354.5173691 9.1875 353.3125 C9.90968618 352.05565201 10.6316059 350.79865088 11.35327148 349.54150391 C13.20743067 346.31362852 15.06563953 343.08810651 16.92541504 339.86346436 C18.57392183 337.00474796 20.22031688 334.14481546 21.8671875 331.28515625 C24.95479176 325.92721891 28.04720933 320.57207499 31.14111328 315.21777344 C34.26324605 309.81329355 37.38141204 304.40652588 40.5 299 C41.74998122 296.8333225 42.99998121 294.66665583 44.25 292.5 C45.178125 290.89125 45.178125 290.89125 46.125 289.25 C53 277.33333333 59.875 265.41666667 66.75 253.5 C67.36891113 252.42717773 67.98782227 251.35435547 68.62548828 250.24902344 C69.87371034 248.08552524 71.12208239 245.92211357 72.37060547 243.75878906 C75.52405256 238.29434983 78.67476096 232.82836355 81.8203125 227.359375 C82.45114746 226.2652832 83.08198242 225.17119141 83.73193359 224.04394531 C84.98415652 221.86507096 86.2293995 219.68216881 87.46728516 217.49511719 C90.49427399 212.1778926 93.61574293 207.01516359 97.078125 201.96875 C103.73269122 192.89332957 103.73269122 192.89332957 105.703125 182.296875 C104.19731668 179.15107742 102.57692321 176.66736934 100.44189453 173.93847656 C98.24427933 170.9840125 96.47703924 167.80651919 94.64257812 164.61816406 C93.00873426 161.78165762 91.33440325 158.97221458 89.65234375 156.1640625 C85.72768336 149.57285073 81.91994839 142.91633928 78.125 136.25 C76.76974213 133.87097357 75.41421699 131.4920995 74.05859375 129.11328125 C73.55434875 128.2282618 73.55434875 128.2282618 73.03991699 127.32536316 C67.07219497 116.85740495 61.0312076 106.43145562 55 96 C54.03644359 94.33203977 53.07290089 92.66407161 52.109375 90.99609375 C48.34452624 84.48278294 44.57213466 77.97411183 40.7734375 71.48046875 C34.11808585 60.10199499 27.52000165 48.69338288 20.99697876 37.23864746 C15.45897075 27.51480008 9.84577403 17.83804211 4.1640625 8.19726562 C3.61492188 7.26205078 3.06578125 6.32683594 2.5 5.36328125 C2.0153125 4.54126221 1.530625 3.71924316 1.03125 2.87231445 C0 1 0 1 0 0 Z " fill="#FEFEFE" transform="translate(512,320)"/>
</svg>
